<svg xmlns="http://www.w3.org/2000/svg" viewBox="0 0 344.92 245.71">
    <defs>
        <style>.cls-1{fill:#eba396;}.cls-2{fill:none;}</style>
    </defs>
    <title>Asset 12</title>
    <g id="Layer_2" data-name="Layer 2">
        <g id="Vector_logos" data-name="Vector logos">
            <polygon class="cls-1" points="207.88 51.77 184.26 92.9 176.58 71.24 207.88 51.77"/>
            <polygon class="cls-1" points="151.34 61.29 124.17 95.72 135.26 172.11 151.34 61.29"/>
            <polygon class="cls-1" points="177.21 0 164.54 64.46 176.58 71.24 194.49 60.01 177.21 0"/>
            <polygon class="cls-1" points="177.21 0 159.82 38.35 164.54 64.46 177.21 0"/>
            <polygon class="cls-1" points="181.63 15.35 207.88 51.77 194.49 60.01 181.63 15.35"/>
            <polygon class="cls-1" points="207.88 51.77 241.24 116.16 184.26 92.9 207.88 51.77"/>
            <polygon class="cls-1" points="241.24 116.16 262.45 122.94 269.57 144.64 241.24 116.16"/>
            <polygon class="cls-1" points="263.63 126.51 300.02 174.62 269.57 144.64 263.63 126.51"/>
            <polygon class="cls-1" points="300.02 174.62 284.56 171.47 241.24 116.16 300.02 174.62"/>
            <polygon class="cls-1" points="241.24 116.16 237.17 156.33 284.56 171.47 241.24 116.16"/>
            <polygon class="cls-1" points="241.24 116.16 207.86 192.06 232.04 213.21 241.24 116.16"/>
            <polygon class="cls-1" points="237.17 156.33 284.56 171.47 253.77 202.04 237.17 156.33"/>
            <polygon class="cls-1" points="241.24 116.16 186.06 145.45 184.26 92.9 241.24 116.16"/>
            <polygon class="cls-1" points="241.24 116.16 186.06 145.45 207.86 192.06 241.24 116.16"/>
            <polygon class="cls-1" points="184.26 92.9 170.45 111.78 186.06 145.45 184.26 92.9"/>
            <polygon class="cls-1" points="184.26 92.9 176.58 71.24 170.45 111.78 184.26 92.9"/>
            <polygon class="cls-1" points="170.45 111.78 164.54 64.46 176.58 71.24 170.45 111.78"/>
            <polygon class="cls-1" points="151.34 61.29 159.82 38.35 164.54 64.46 170.45 111.78 151.34 61.29"/>
            <polygon class="cls-1" points="170.45 111.78 142.03 125.28 151.34 61.29 170.45 111.78"/>
            <polygon class="cls-1" points="170.45 111.78 135.26 172.11 142.03 125.28 170.45 111.78"/>
            <polygon class="cls-1" points="170.45 111.78 135.26 172.11 156.88 191.41 166.23 139.7 207.86 192.06 170.45 111.78"/>
            <polygon class="cls-1" points="159.82 38.35 134.71 57.75 124.17 95.72 151.34 61.29 159.82 38.35"/>
            <polygon class="cls-1" points="124.17 95.72 110.46 123.33 121.08 149.84 124.17 95.72"/>
            <polygon class="cls-1" points="124.17 95.72 121.08 149.84 135.26 172.11 124.17 95.72"/>
            <polygon class="cls-1" points="110.46 123.33 70.42 187.18 115.75 136.53 110.46 123.33"/>
            <polygon class="cls-1" points="115.75 136.53 121.08 149.84 70.42 187.18 115.75 136.53"/>
            <polygon class="cls-1" points="121.08 149.84 102.02 203.88 135.26 172.11 121.08 149.84"/>
            <polygon class="cls-1" points="102.02 203.88 130.06 229.22 135.26 172.11 102.02 203.88"/>
            <polygon class="cls-1" points="166.23 139.7 156.88 191.41 170.72 203.88 166.23 139.7"/>
            <polygon class="cls-1" points="166.23 139.7 170.72 203.88 188.81 209.1 166.23 139.7"/>
            <polygon class="cls-1" points="166.23 139.7 188.81 209.1 207.86 192.06 166.23 139.7"/>
            <polygon class="cls-1" points="237.17 156.33 232.04 213.21 253.77 202.04 237.17 156.33"/>
            <polygon class="cls-1" points="121.08 149.84 70.42 187.18 73.33 206.86 121.08 149.84"/>
            <polygon class="cls-1" points="284.56 171.47 320.18 209.81 300.02 174.62 284.56 171.47"/>
            <polygon class="cls-1" points="284.56 171.47 290.88 226.65 320.18 209.81 284.56 171.47"/>
            <polygon class="cls-1" points="284.56 171.47 290.88 226.65 278.58 232.84 253.77 202.04 284.56 171.47"/>
            <polygon class="cls-1" points="188.75 209.1 189.08 233.67 207.79 192.06 188.75 209.1"/>
            <polygon class="cls-1" points="188.99 209.1 170.9 203.88 189.32 233.67 188.99 209.1"/>
            <polygon class="cls-2" points="314.73 245.71 320.18 209.81 314.5 245.71 314.73 245.71"/>
            <polygon class="cls-2" points="343.37 245.71 343.48 245.71 320.18 209.81 320.23 210.06 343.37 245.71"/>
            <polygon class="cls-2" points="2.52 245.71 73.33 207.03 92.71 245.71 92.82 245.71 89.62 239.23 73.33 206.86 2.21 245.71 2.52 245.71"/>
            <polygon class="cls-2" points="104.57 245.71 102.02 242.01 104.57 245.71 104.57 245.71"/>
            <polygon class="cls-2" points="95.96 221.22 89.62 239.23 95.96 221.22 95.96 221.22"/>
            <polygon class="cls-2" points="149.46 245.71 156.88 191.41 149.46 245.71 149.46 245.71"/>
            <polygon class="cls-1" points="95.96 221.22 95.9 221.03 101.9 203.88 102.02 203.99 121.08 149.84 73.33 206.86 89.62 239.23 95.96 221.22"/>
            <polygon class="cls-1" points="96.02 221.03 101.9 241.58 101.9 204.33 95.96 221.22 95.96 221.22 96.02 221.03"/>
            <polygon class="cls-1" points="101.9 203.88 95.9 221.03 95.96 221.22 101.9 204.33 101.9 203.88"/>
            <polygon class="cls-1" points="101.9 241.58 102.01 241.96 129.94 229.22 102.02 203.99 101.9 204.33 101.9 241.58"/>
            <polygon class="cls-1" points="101.9 204.33 102.02 203.99 101.9 203.88 101.9 204.33"/>
            <polygon class="cls-1" points="73.33 206.86 70.42 187.18 0 245.71 2.21 245.71 73.33 206.86"/>
            <polygon class="cls-1" points="2.52 245.71 92.71 245.71 73.33 207.03 2.52 245.71"/>
            <polygon class="cls-1" points="95.96 221.22 89.62 239.23 92.82 245.71 98.2 245.71 102.02 242.01 102.01 241.96 101.9 242.01 95.96 221.22"/>
            <polygon class="cls-1" points="95.96 221.22 101.9 242.01 101.9 241.58 96.02 221.03 95.96 221.22"/>
            <polygon class="cls-1" points="101.9 242.01 102.01 241.96 101.9 241.58 101.9 242.01"/>
            <polygon class="cls-1" points="344.92 245.71 341.41 231.01 320.18 209.81 343.48 245.71 344.92 245.71"/>
            <polygon class="cls-1" points="327.62 245.71 343.37 245.71 320.23 210.06 327.62 245.71"/>
            <polygon class="cls-1" points="327.58 245.71 320.18 209.98 320.23 210.06 320.18 209.81 314.73 245.71 327.58 245.71"/>
            <polygon class="cls-1" points="320.23 210.06 320.18 209.98 327.58 245.71 327.62 245.71 320.23 210.06"/>
            <polygon class="cls-1" points="314.5 245.71 320.18 209.81 308.63 216.45 309.49 245.71 314.5 245.71"/>
            <polygon class="cls-1" points="309.49 245.71 308.63 216.45 278.58 232.84 288.9 245.71 309.49 245.71"/>
            <polygon class="cls-1" points="268.25 245.71 278.58 232.84 253.77 202.04 264.55 245.71 268.25 245.71"/>
            <polygon class="cls-1" points="288.9 245.71 278.58 232.84 268.25 245.71 288.9 245.71"/>
            <polygon class="cls-1" points="234.76 245.71 253.77 202.04 219.51 245.71 234.76 245.71"/>
            <polygon class="cls-1" points="219.51 245.71 253.77 202.04 232.04 213.21 218.25 245.71 219.51 245.71"/>
            <polygon class="cls-1" points="218.25 245.71 232.04 213.21 207.86 192.06 216.21 245.71 218.25 245.71"/>
            <polygon class="cls-1" points="216.21 245.71 207.86 192.06 189.15 233.67 196.59 245.71 216.21 245.71"/>
            <polygon class="cls-1" points="196.59 245.71 189.15 233.67 189.15 233.67 170.72 203.88 174.63 245.71 196.59 245.71"/>
            <polygon class="cls-1" points="196.59 245.71 196.59 245.71 189.15 233.67 189.15 233.67 196.59 245.71"/>
            <polygon class="cls-1" points="174.63 245.71 170.72 203.88 156.88 191.41 149.46 245.71 174.63 245.71"/>
            <polygon class="cls-1" points="149.46 245.71 156.88 191.41 135.26 172.11 146.58 245.71 149.46 245.71"/>
            <polygon class="cls-1" points="146.58 245.71 135.26 172.11 130.06 229.22 141.34 245.71 146.58 245.71"/>
            <polygon class="cls-1" points="264.55 245.71 253.77 202.04 234.76 245.71 264.55 245.71"/>
            <polygon class="cls-1" points="141.34 245.71 130.06 229.22 102.02 242.01 114.56 245.71 141.34 245.71"/>
            <polygon class="cls-1" points="114.56 245.71 102.02 242.01 104.57 245.71 114.56 245.71"/>
            <polygon class="cls-1" points="104.57 245.71 102.02 242.01 98.2 245.71 104.57 245.71"/>
        </g>
    </g>
</svg>