<svg xmlns="http://www.w3.org/2000/svg" viewBox="0 0 300 133.76">
    <def>
        <style>
            .polygons {
                fill: #eba396;
                stroke: currentColor;
            }
        </style>
    </def>
    <g class="polygons">
        <polygon points="260.47 73.44 254.23 26.11 266.94 32.89 260.47 73.44"/>
        <polygon points="300 13.43 275.06 54.55 266.94 32.89 300 13.43"/>
        <polygon points="240.28 22.94 211.59 57.37 223.3 133.76 240.28 22.94"/>
        <polygon points="249.24 0 254.23 26.11 266.94 32.89 300 13.43 249.24 0"/>
        <polygon points="260.47 73.44 223.3 133.76 276.96 107.1 260.47 73.44"/>
        <polygon points="275.06 54.55 260.47 73.44 276.96 107.1 275.06 54.55"/>
        <polygon points="275.06 54.55 266.94 32.89 260.47 73.44 275.06 54.55"/>
        <polygon points="240.28 22.94 249.24 0 254.23 26.11 260.47 73.44 240.28 22.94"/>
        <polygon points="260.47 73.44 230.45 86.93 240.28 22.94 260.47 73.44"/>
        <polygon points="260.47 73.44 223.3 133.76 230.45 86.93 260.47 73.44"/>
        <polygon points="249.24 0 222.71 19.4 211.59 57.37 240.28 22.94 249.24 0"/>
        <polygon points="211.59 57.37 174.63 76.17 223.3 133.76 211.59 57.37"/>
        <polygon points="60.18 77.81 36.69 68.73 1.9 107.1 60.18 77.81"/>
        <polygon points="24.94 13.43 71.58 46.98 102.58 83.58 60.18 77.81 24.94 13.43"/>
        <polygon points="24.94 13.43 60.18 77.81 0 54.55 24.94 13.43"/>
        <polygon points="36.69 68.73 1.9 107.1 0 54.55 36.69 68.73"/>
        <polygon points="24.94 13.43 71.58 46.98 89.85 23.33 24.94 13.43"/>
        <polygon points="138.72 8.89 71.58 46.98 89.85 23.33 138.72 8.89"/>
        <polygon points="174.63 76.17 183.73 94.62 223.3 133.76 174.63 76.17"/>
        <polygon points="138.72 8.89 71.58 46.98 102.58 83.58 138.72 8.89"/>
        <polygon points="138.72 8.89 102.58 83.58 148.73 63.47 156.68 39.78 138.72 8.89"/>
        <polygon points="60.18 77.81 1.9 107.1 65.91 100.15 60.18 77.81"/>
        <polygon points="102.58 83.58 89.85 116.73 60.18 77.81 102.58 83.58"/>
        <polygon points="183.73 94.62 89.85 116.73 102.58 83.58 183.73 94.62"/>
        <polygon points="222.71 19.4 211.59 57.37 174.63 76.17 175.45 33.99 222.71 19.4"/>
        <polygon points="148.73 26.11 156.68 39.78 222.71 19.4 148.73 26.11"/>
        <polygon points="156.68 39.78 148.73 63.47 102.58 83.58 183.73 94.62 156.68 39.78"/>
        <polygon points="156.68 100.99 183.73 94.62 223.3 133.76 156.68 100.99"/>
        <polygon points="175.45 33.99 174.63 76.17 156.68 39.78 175.45 33.99"/>
        <polygon points="89.85 116.73 60.18 77.81 65.91 100.15 89.85 116.73"/>
    </g>
</svg>