<svg xmlns="http://www.w3.org/2000/svg" viewBox="0 0 350 300">
    <defs>
        <style>
            .mountain {
                fill: #eba396;
            }
        </style>
    </defs>
    <g class="mountain">
        <polygon points="212.11 51.77 188.5 92.9 180.82 71.24 212.11 51.77"/>
        <polygon points="155.57 61.29 128.41 95.72 139.5 172.11 155.57 61.29"/>
        <polygon points="181.44 0 168.78 64.46 180.82 71.24 198.73 60.01 181.44 0"/>
        <polygon points="181.44 0 164.05 38.35 168.78 64.46 181.44 0"/>
        <polygon points="185.86 15.35 212.11 51.77 198.73 60.01 185.86 15.35"/>
        <polygon points="212.11 51.77 245.47 116.16 188.5 92.9 212.11 51.77"/>
        <polygon points="245.47 116.16 266.69 122.94 273.81 144.64 245.47 116.16"/>
        <polygon points="267.86 126.51 304.25 174.62 273.81 144.64 267.86 126.51"/>
        <polygon points="304.25 174.62 288.8 171.47 245.47 116.16 304.25 174.62"/>
        <polygon points="245.47 116.16 241.4 156.33 288.8 171.47 245.47 116.16"/>
        <polygon points="245.47 116.16 212.09 192.06 236.28 213.21 245.47 116.16"/>
        <polygon points="241.4 156.33 288.8 171.47 258.01 202.04 241.4 156.33"/>
        <polygon points="245.47 116.16 190.3 145.45 188.5 92.9 245.47 116.16"/>
        <polygon points="245.47 116.16 190.3 145.45 212.09 192.06 245.47 116.16"/>
        <polygon points="188.5 92.9 174.69 111.78 190.3 145.45 188.5 92.9"/>
        <polygon points="188.5 92.9 180.82 71.24 174.69 111.78 188.5 92.9"/>
        <polygon points="174.69 111.78 168.78 64.46 180.82 71.24 174.69 111.78"/>
        <polygon points="155.57 61.29 164.05 38.35 168.78 64.46 174.69 111.78 155.57 61.29"/>
        <polygon points="174.69 111.78 146.27 125.28 155.57 61.29 174.69 111.78"/>
        <polygon points="174.69 111.78 139.5 172.11 146.27 125.28 174.69 111.78"/>
        <polygon points="174.69 111.78 139.5 172.11 161.12 191.41 170.47 139.7 212.09 192.06 174.69 111.78"/>
        <polygon points="164.05 38.35 138.94 57.75 128.41 95.72 155.57 61.29 164.05 38.35"/>
        <polygon points="128.41 95.72 114.7 123.33 125.31 149.84 128.41 95.72"/>
        <polygon points="128.41 95.72 125.31 149.84 139.5 172.11 128.41 95.72"/>
        <polygon points="114.7 123.33 74.66 187.18 119.98 136.53 114.7 123.33"/>
        <polygon points="119.98 136.53 125.31 149.84 74.66 187.18 119.98 136.53"/>
        <polygon points="125.31 149.84 106.26 203.88 139.5 172.11 125.31 149.84"/>
        <polygon points="106.26 203.88 134.29 229.22 139.5 172.11 106.26 203.88"/>
        <polygon points="170.47 139.7 161.12 191.41 174.96 203.88 170.47 139.7"/>
        <polygon points="170.47 139.7 174.96 203.88 193.05 209.1 170.47 139.7"/>
        <polygon points="170.47 139.7 193.05 209.1 212.09 192.06 170.47 139.7"/>
        <polygon points="241.4 156.33 236.28 213.21 258.01 202.04 241.4 156.33"/>
        <polygon points="125.31 149.84 74.66 187.18 77.57 206.86 125.31 149.84"/>
        <polygon points="125.31 149.84 77.57 206.86 93.85 239.23 125.31 149.84"/>
        <polygon points="106.14 203.88 100.14 221.03 106.14 242.01 106.14 203.88"/>
        <polygon points="106.14 203.88 106.14 242.01 134.17 229.22 106.14 203.88"/>
        <polygon points="74.66 187.18 0 249.22 77.57 206.86 74.66 187.18"/>
        <polygon points="0 249.4 98.8 249.4 77.57 207.03 0 249.4"/>
        <polygon points="106.26 242.01 98.8 249.22 93.85 239.23 100.26 221.03 106.26 242.01"/>
        <polygon points="288.8 171.47 324.42 209.81 304.25 174.62 288.8 171.47"/>
        <polygon points="288.8 171.47 295.12 226.65 324.42 209.81 288.8 171.47"/>
        <polygon points="324.42 209.81 345.64 231.01 350 249.22 324.42 209.81"/>
        <polygon points="350 249.4 332.58 249.4 324.42 209.98 350 249.4"/>
        <polygon points="324.42 209.81 316.75 260.26 332.58 249.22 324.42 209.81"/>
        <polygon points="324.42 209.81 312.86 216.45 314.51 272.38 324.42 209.81"/>
        <polygon points="312.86 216.45 314.51 272.38 282.82 232.84 312.86 216.45"/>
        <polygon points="288.8 171.47 295.12 226.65 282.82 232.84 258.01 202.04 288.8 171.47"/>
        <polygon points="258.01 202.04 269.66 249.22 282.82 232.84 258.01 202.04"/>
        <polygon points="314.51 272.38 282.82 232.84 269.66 249.22 314.51 272.38"/>
        <polygon points="258.01 202.04 220.99 249.22 223.23 281.91 258.01 202.04"/>
        <polygon points="258.01 202.04 236.28 213.21 220.99 249.22 258.01 202.04"/>
        <polygon points="236.28 213.21 212.09 192.06 220.99 249.22 236.28 213.21"/>
        <polygon points="220.99 249.22 212.09 192.06 193.38 233.67 223.23 281.91 220.99 249.22"/>
        <polygon points="192.98 209.1 193.31 233.67 212.03 192.06 192.98 209.1"/>
        <polygon points="193.22 209.1 175.13 203.88 193.56 233.67 193.22 209.1"/>
        <polygon points="174.96 203.88 180.82 266.57 223.23 281.91 174.96 203.88"/>
        <polygon points="161.12 191.41 174.96 203.88 180.82 266.57 146.27 300 161.12 191.41"/>
        <polygon points="161.12 191.41 139.5 172.11 152.34 255.6 161.12 191.41"/>
        <polygon points="139.5 172.11 134.29 229.22 152.34 255.6 139.5 172.11"/>
        <polygon points="269.66 249.22 223.23 281.91 258.01 202.04 269.66 249.22"/>
        <polygon points="106.26 242.01 134.29 229.22 152.34 255.6 106.26 242.01"/>
        <polygon points="152.34 255.6 146.27 300 106.26 242.01 152.34 255.6"/>
        <polygon points="125.9 270.47 98.8 249.22 146.27 300 125.9 270.47"/>
        <polygon points="106.26 242.01 98.8 249.22 125.9 270.47 106.26 242.01"/>
    </g>
</svg>